<svg xmlns="http://www.w3.org/2000/svg" viewBox="0 0 256 256">
  <defs>
    <linearGradient id="bg" x1="0" x2="1" y1="0" y2="1">
      <stop offset="0%" stop-color="#f4f7fb"/>
      <stop offset="100%" stop-color="#a71d31"/>
    </linearGradient>
  </defs>
  <rect width="256" height="256" fill="url(#bg)"/>
  <circle cx="128" cy="92" r="44" fill="#f1d0bc"/>
  <path d="M76 78c18-35 80-35 101 4-8-4-18-7-28-7-24 0-47 12-73 3z" fill="#f7f7fb"/>
  <path d="M65 235c9-52 46-85 67-85 23 0 60 36 61 85" fill="#d8dce8"/>
  <path d="M73 231c6-42 31-63 55-63 25 0 48 22 55 63" fill="#ac1c37"/>
  <path d="M83 153h90l-10 25H93z" fill="#d7b55f"/>
</svg>
